<svg width="46" height="50" viewBox="0 0 46 50" fill="none" xmlns="http://www.w3.org/2000/svg">
<path d="M45.238 5.21512C45.2119 6.26096 44.8433 7.2255 43.9238 7.91456C43.0982 8.53338 42.1013 8.32658 41.574 7.45124C40.941 6.39988 40.0514 6.24044 39.0672 6.97055C38.0505 7.72513 37.3836 8.76702 36.7363 9.81207C34.3747 13.6244 32.0099 17.4352 29.7051 21.2823C26.9954 25.8043 24.3394 30.3586 21.6747 34.9082C20.3431 37.1814 19.0408 39.472 17.7368 41.7618C17.5829 42.0317 17.4266 42.0838 17.1346 41.997C15.3413 41.4666 13.4974 41.289 11.6441 41.4342C9.47591 41.6047 7.44896 42.2259 5.79061 43.7264C5.55619 43.9379 5.36281 44.2244 5.23021 44.5133C4.77004 45.5126 4.35644 46.5332 3.89785 47.5332C3.78814 47.7716 3.60975 48.0131 3.399 48.1639C2.62074 48.7203 1.81723 49.2397 1.02081 49.7709C0.956088 49.8143 0.880316 49.8412 0.807699 49.8704C0.562224 49.9698 0.259917 50.1151 0.0949509 49.8467C-0.0163419 49.6651 -0.0329173 49.325 0.0618 49.1324C0.706667 47.8284 1.3981 46.5482 2.06349 45.2537C2.80623 43.8085 3.51503 42.3451 4.28145 40.9125C4.74241 40.0498 4.92159 39.1302 4.90975 38.1854C4.88449 36.1608 5.47568 34.3257 6.39444 32.5497C9.23359 27.0625 12.4366 21.8096 16.2127 16.908C18.2286 14.2914 20.366 11.7869 22.7229 9.4774C25.4768 6.77875 28.4549 4.35162 31.7858 2.38702C33.5538 1.34434 35.3977 0.457948 37.4467 0.128016C39.7404 -0.240592 41.8597 0.154853 43.6602 1.73268C44.575 2.5362 45.2317 3.96801 45.238 5.21512ZM19.3746 35.2539C19.2294 35.3163 19.216 35.3281 19.2065 35.3257C19.1576 35.3131 19.1071 35.3029 19.0605 35.2823C17.4172 34.5435 15.7059 34.4133 13.9442 34.7022C12.5479 34.9311 11.2692 35.5026 9.96133 36.0038C9.34173 36.2413 9.04494 36.662 8.82709 37.2588C8.98574 37.198 9.11677 37.1467 9.24858 37.0977C10.9945 36.445 12.78 36.0093 14.6625 36.1269C14.788 36.1348 14.9064 36.2524 15.0287 36.3195C14.9072 36.3637 14.784 36.4481 14.6633 36.4458C12.6245 36.4071 10.7475 37.0385 8.89182 37.7923C8.2801 38.041 8.12382 38.5627 7.8444 39.105C9.54063 38.3196 11.2708 38.0126 13.0539 37.9613C13.1691 37.9581 13.2875 38.0583 13.4043 38.1104C13.2875 38.1625 13.1738 38.2517 13.0539 38.2604C11.2424 38.3946 9.52484 38.854 7.9036 39.6851C7.47027 39.9069 7.17507 40.1958 7.05588 40.6686C9.76953 39.6725 11.8794 39.2431 12.3719 39.6212C12.2653 39.648 12.1856 39.678 12.1043 39.6875C10.4965 39.873 8.94549 40.2653 7.4308 40.8486C6.82698 41.0814 6.56572 41.4903 6.35655 42.0893C6.501 42.0025 6.5965 41.9433 6.69438 41.8881C6.79699 41.8297 6.90039 41.7728 7.00616 41.7207C10.1429 40.1618 13.4114 40.1311 16.7431 40.8991C16.9901 40.9559 17.1046 40.9267 17.234 40.6978C18.3549 38.7103 19.4781 36.7236 20.6249 34.7503C22.6748 31.2245 24.7159 27.6931 26.8076 24.1925C29.5923 19.5324 32.4101 14.8913 35.2406 10.2588C36.0812 8.88384 36.9329 7.50491 38.1484 6.4054C38.6772 5.92708 39.2621 5.56005 39.9899 5.52848C41.0981 5.48112 41.9079 5.98707 42.4052 6.96581C42.5693 7.28943 42.8172 7.33127 43.0769 7.22313C43.32 7.1221 43.5733 6.9595 43.7296 6.75349C44.53 5.69818 44.3997 4.35083 43.616 3.19528C42.5433 1.61429 40.9244 1.04993 39.1019 0.974947C37.3283 0.902331 35.6873 1.43827 34.1111 2.19285C30.6413 3.85435 27.8297 6.35252 25.2629 9.16404C22.6898 11.9819 20.4142 15.0334 18.2175 18.144C15.3381 22.2216 12.8313 26.5305 10.4823 30.9293C8.09935 35.3928 5.75273 39.8761 3.38795 44.3484C2.64837 45.7462 1.89932 47.1394 1.12816 48.5846C1.26076 48.5143 1.3539 48.4788 1.43283 48.4212C1.87879 48.0976 2.32949 47.7803 2.75888 47.4361C2.91516 47.3114 3.06039 47.1362 3.13617 46.9531C4.66427 43.2836 6.39207 39.7119 8.24458 36.1948C11.4484 30.1123 14.773 24.1017 18.6351 18.4069C21.3432 14.413 24.2668 10.5911 27.7674 7.2397C30.1164 4.99017 32.7835 3.24264 35.7955 2.01368C37.5406 1.30093 39.3008 1.19043 41.0831 1.83451C41.93 2.14076 42.5954 2.71932 43.1913 3.37761C43.2537 3.44707 43.2497 3.57651 43.2766 3.67834C43.1763 3.65308 43.0627 3.64913 42.9782 3.59782C42.8559 3.52442 42.7564 3.4147 42.6443 3.32393C42.136 2.9127 41.649 2.47858 40.9891 2.29862C39.3411 1.8495 37.7609 2.04446 36.1814 2.65223C33.7085 3.60414 31.6034 5.13145 29.5512 6.7527C29.2237 7.01159 28.9277 7.31153 28.5685 7.63673C28.6925 7.64541 28.7201 7.65409 28.7446 7.64857C30.0517 7.37152 31.3517 7.45124 32.6445 7.73776C32.7606 7.76381 32.86 7.86247 32.9674 7.92719C32.9492 7.96587 32.9303 8.00455 32.9121 8.04322C32.8379 8.04322 32.7614 8.05427 32.6895 8.04164C31.4345 7.82222 30.1811 7.853 28.9308 8.06927C28.2631 8.18451 27.578 8.28712 27.2228 9.02197C27.3364 9.00855 27.4501 9.00855 27.5574 8.98171C28.5354 8.73782 29.5291 8.70703 30.5284 8.75755C30.6547 8.76386 30.7786 8.82385 30.9033 8.85937C30.897 8.90594 30.8907 8.95251 30.8844 8.99908C30.762 9.02197 30.6405 9.04959 30.5173 9.06775C29.3673 9.23508 28.2189 9.41741 27.0649 9.56028C26.5645 9.62263 26.3214 9.9573 26.0254 10.3299C26.5755 10.2328 27.0728 10.0946 27.5772 10.0654C28.5172 10.0118 29.4605 10.0173 30.4021 10.0118C30.4905 10.011 30.5797 10.1025 30.6681 10.1515C30.65 10.1878 30.6318 10.2241 30.6136 10.2604C30.5363 10.2651 30.4597 10.2738 30.3824 10.2738C29.0011 10.2864 27.6435 10.4846 26.2874 10.7395C25.5826 10.8721 25.139 11.2573 24.7727 11.8319C27.4619 11.2936 28.5117 11.2131 28.8764 11.5683C28.7193 11.6141 28.5962 11.6638 28.4683 11.6867C27.2599 11.9045 26.0522 12.1326 24.8398 12.3252C24.225 12.4231 23.8524 12.7917 23.5446 13.3135C23.633 13.2913 23.7056 13.2779 23.7758 13.255C25.3663 12.7388 27.0033 12.581 28.6656 12.6307C28.8393 12.6362 29.0098 12.7278 29.1818 12.7791C29.1708 12.8264 29.1605 12.8746 29.1495 12.922C29.0398 12.933 28.93 12.9519 28.8203 12.9551C27.042 12.9993 25.3095 13.3127 23.5919 13.7689C23.0402 13.9157 22.76 14.2732 22.4356 14.7247C24.0245 14.2811 25.57 13.9812 27.1778 14.2456C27.0057 14.3656 26.8202 14.4295 26.6316 14.4382C25.1129 14.5116 23.6543 14.8644 22.228 15.3696C21.7868 15.5259 21.4813 15.8511 21.3124 16.3436C22.5161 16.0026 23.7127 15.6964 24.9772 15.8487C24.813 15.9924 24.6322 16.0571 24.4475 16.1029C23.4096 16.3626 22.3622 16.5891 21.3337 16.8843C20.5965 17.0958 20.3976 17.3334 20.0771 18.0596C20.1182 18.0548 20.1592 18.058 20.1947 18.0454C22.3464 17.2947 24.5604 16.9309 26.8384 17.0524C27.4185 17.0832 27.9923 17.2624 28.5654 17.391C28.6712 17.4147 28.758 17.5236 28.8543 17.5939C28.8369 17.6278 28.8195 17.6618 28.8022 17.6957C28.6633 17.6799 28.5236 17.6697 28.3862 17.6476C27.9852 17.5836 27.5882 17.481 27.1849 17.455C24.6386 17.2916 22.2083 17.8157 19.8498 18.7321C19.3762 18.916 19.1473 19.1867 18.9618 19.7124C20.7299 19.1007 22.5279 18.6887 24.4247 18.7621C24.3047 18.9002 24.1626 18.9989 24.0119 19.0178C22.4482 19.2112 20.9225 19.564 19.4315 20.0731C18.7187 20.3162 18.0241 20.572 17.8252 21.4007C19.9335 20.6477 22.1033 20.1505 24.3986 20.3494C24.2329 20.4851 24.0474 20.5862 23.8564 20.5964C21.8247 20.7109 19.8609 21.1245 17.9807 21.9098C17.1788 22.2445 17.1559 22.2698 16.8244 22.9738C17.8592 22.7157 18.9674 22.4174 20.0866 22.1703C20.5815 22.0606 21.0993 22.0503 21.6084 22.0101C21.6731 22.0045 21.7457 22.0898 21.8144 22.1332C21.7552 22.1924 21.7039 22.2658 21.6337 22.3069C21.5824 22.3376 21.5066 22.329 21.4411 22.3345C19.8356 22.4829 18.3107 22.913 16.8465 23.5871C16.3326 23.8239 15.9814 24.1744 15.7786 24.7158C16.8867 24.2596 17.9815 23.8042 19.2057 23.8815C19.1118 24.007 18.995 24.0583 18.8758 24.1033C17.8868 24.4759 16.9017 24.8595 15.9064 25.2155C15.3002 25.4325 15.0034 25.9124 14.7296 26.4523C14.7793 26.4523 14.8045 26.4586 14.8251 26.4515C14.9111 26.4215 14.9963 26.3876 15.0816 26.3544C17.2538 25.5051 19.512 25.1973 21.8286 25.3291C22.3985 25.3615 22.9621 25.5138 23.5241 25.6322C23.6448 25.6575 23.7466 25.7743 23.9156 25.8887C23.7719 25.9401 23.734 25.9685 23.7001 25.9637C23.2983 25.9101 22.8973 25.8532 22.4964 25.7925C19.7669 25.3789 17.1796 25.8106 14.7075 27.0388C14.2141 27.2842 13.9789 27.6655 13.7406 28.173C13.8408 28.1312 13.8842 28.113 13.9276 28.0949C15.601 27.4208 17.3319 27.0601 19.1426 27.1319C19.257 27.1366 19.3691 27.2014 19.482 27.2385C19.3675 27.2874 19.2563 27.3719 19.1386 27.3805C17.2822 27.5179 15.4999 27.9181 13.7997 28.7121C13.1667 29.0073 12.9536 29.529 12.6497 30.0981C14.6167 29.3807 16.5931 29.0199 18.6232 28.9734C19.8214 28.9457 21.0038 29.0957 22.1443 29.4896C22.2896 29.5393 22.4206 29.6301 22.5579 29.7011C22.5437 29.7414 22.5295 29.7824 22.5153 29.8227C22.3985 29.8061 22.2801 29.7943 22.1641 29.7714C21.4711 29.6364 20.7844 29.4304 20.085 29.3743C17.5853 29.1762 15.1842 29.6238 12.8581 30.5551C12.2661 30.7919 11.9433 31.1819 11.757 31.7707C13.6079 31.1298 15.4652 30.642 17.4337 30.8527C17.3382 30.9609 17.2293 30.9995 17.1172 31.0114C15.2694 31.1984 13.4832 31.6128 11.7673 32.3453C11.2487 32.5663 11.0403 32.9475 10.839 33.4598C12.5361 32.8528 14.1952 32.369 15.9711 32.5C15.8456 32.6295 15.7028 32.71 15.5536 32.725C14.0429 32.8797 12.6174 33.3209 11.2077 33.8813C10.3931 34.2049 10.0316 34.7969 9.73322 35.5657C11.3134 34.8016 12.9441 34.3644 14.6577 34.257C16.0998 34.167 17.5119 34.3202 18.8592 34.8758C19.0289 34.9485 19.1686 35.1016 19.3746 35.2539ZM8.80894 30.0145C8.09935 30.8361 8.03068 31.9728 8.42139 32.9957C8.57294 32.7171 8.72369 32.4582 8.85472 32.1898C8.93207 32.0312 9.03942 31.852 9.026 31.691C8.97864 31.1258 8.88392 30.5638 8.80894 30.0145ZM7.74968 31.942C7.12297 32.9839 6.96827 34.2562 7.37792 34.95C7.52473 34.6746 7.67391 34.4141 7.80257 34.1441C7.88466 33.9721 8.00384 33.7795 7.98806 33.6058C7.9407 33.0636 7.83809 32.5253 7.74968 31.942ZM9.41197 31.2324C9.66297 30.5741 10.195 30.1392 9.97081 29.413C9.85162 29.0263 9.89108 28.5898 9.85556 28.1399C9.12151 29.0807 9.06862 30.0784 9.41197 31.2324ZM11.3631 27.6615C11.5573 27.2558 11.8636 26.8643 11.9172 26.4405C11.9883 25.8761 11.8628 25.2865 11.8209 24.6937C11.1927 25.5991 11.0087 26.5739 11.3631 27.6615ZM12.9481 22.9699C12.3127 23.7797 12.042 25.0623 12.3498 25.8974C12.5637 25.5399 12.7792 25.2005 12.9702 24.8476C13.027 24.7419 13.0365 24.5982 13.0318 24.4735C13.0112 23.9691 12.9765 23.4664 12.9481 22.9699ZM14.4154 22.3582C15.3507 21.6809 15.1708 20.6682 15.1976 19.7305C14.4691 20.4607 14.3554 21.3913 14.4154 22.3582ZM10.7317 26.5486C10.1839 27.3995 10.2597 28.3506 10.3726 29.3183C10.5328 29.1257 10.6409 28.9079 10.7783 28.7105C10.9716 28.4327 10.9914 28.1604 10.9101 27.8297C10.8091 27.4184 10.7893 26.9875 10.7317 26.5486ZM13.9576 21.6036C13.3356 22.3061 13.3506 23.1396 13.394 24.011C14.2797 23.3401 13.926 22.4308 13.9576 21.6036ZM6.51915 36.4805C6.8846 35.9911 7.05036 35.5444 6.84829 34.9808C6.73937 34.6769 6.77962 34.3194 6.752 33.9847C6.21763 34.7527 6.36839 35.5886 6.51915 36.4805ZM16.0146 18.6176C15.4976 19.2041 15.5686 19.8576 15.6144 20.6122C15.8575 20.2357 16.1432 19.9626 16.2064 19.6453C16.2663 19.343 16.0943 18.9941 16.0146 18.6176ZM18.0455 15.9703C17.4314 16.4154 17.2932 17.3003 17.4645 17.7502C18.107 17.3105 18.0731 16.6309 18.0455 15.9703ZM16.56 19.0762C17.1401 18.5995 17.013 18.0122 16.9609 17.3997C16.3974 17.8836 16.3611 18.4416 16.56 19.0762ZM19.0802 14.7287C18.4796 15.1644 18.478 15.795 18.459 16.4446C19.0542 16.0066 19.1134 15.398 19.0802 14.7287ZM19.5057 15.1036C19.9169 14.5953 20.3676 14.1659 20.1513 13.4879C19.5941 13.8407 19.4473 14.398 19.5057 15.1036ZM20.5839 13.7152C20.9683 13.2345 21.3598 12.8383 21.2658 12.2116C20.8459 12.6054 20.4781 13.0127 20.5839 13.7152ZM6.02741 35.9217C5.93111 36.6202 5.84508 37.2446 5.75431 37.9044C6.23421 37.3006 6.37392 36.6794 6.02741 35.9217ZM22.2438 11.3536C22.2035 11.337 22.1641 11.3212 22.1238 11.3047C21.6447 11.6788 21.6195 11.7332 21.7868 12.2558C21.9391 11.955 22.0915 11.6543 22.2438 11.3536ZM23.3046 10.2762C23.2754 10.2549 23.2454 10.2344 23.2162 10.213C22.5832 10.7214 22.5272 10.8066 22.5982 11.2273C22.8492 10.8887 23.0765 10.5824 23.3046 10.2762Z" fill="black"/>
<path d="M36.4364 6.34461C36.3385 6.3304 36.2288 6.33987 36.1444 6.29725C35.0827 5.76762 33.9493 5.65396 32.7866 5.69816C32.6825 5.70211 32.5735 5.71316 32.4741 5.68948C32.4109 5.67448 32.3225 5.60818 32.3146 5.55451C32.3067 5.49926 32.3699 5.39349 32.4236 5.37612C32.6335 5.30824 32.8498 5.2301 33.0668 5.22142C34.2374 5.17406 35.3022 5.53951 36.3149 6.09282C36.3835 6.13071 36.4569 6.15991 36.5288 6.19385C36.498 6.24437 36.4672 6.29488 36.4364 6.34461Z" fill="black"/>
<path d="M33.9626 6.79216C33.8861 6.81584 33.8095 6.86004 33.7321 6.86004C32.6374 6.8632 31.5418 6.86399 30.447 6.85215C30.3231 6.85057 30.2 6.76454 30.0768 6.71718C30.1534 6.6272 30.2166 6.47723 30.3089 6.4567C31.5434 6.18123 32.755 6.29963 33.9468 6.65798C33.9524 6.70297 33.9579 6.74796 33.9626 6.79216Z" fill="black"/>
<path d="M38.2582 5.1591C37.2628 4.88047 36.2833 4.60579 35.303 4.33111C35.4308 4.09668 35.6771 4.03749 36.1428 4.12431C37.3126 4.34216 38.2037 4.78181 38.2582 5.1591Z" fill="black"/>
<path d="M40.4595 4.1535C40.2361 4.10614 40.0964 4.08562 39.9614 4.04694C39.3134 3.86224 38.6646 3.67833 38.0205 3.48022C37.8887 3.43996 37.7751 3.33972 37.6535 3.26789C37.7893 3.20475 37.9258 3.08477 38.06 3.08714C38.9109 3.10293 39.6449 3.45575 40.3269 3.93407C40.364 3.95933 40.379 4.01616 40.4595 4.1535Z" fill="black"/>
<path d="M26.4468 23.1664C25.2534 22.9628 24.1633 22.7765 22.9936 22.5768C23.5319 22.224 25.9227 22.6407 26.4468 23.1664Z" fill="black"/>
<path d="M42.2481 4.30346C42.14 4.22216 42.0366 4.13297 41.9229 4.06114C41.4099 3.73595 40.8929 3.41707 40.3806 3.09187C40.3254 3.05714 40.2891 2.99242 40.2441 2.94111C40.3041 2.9048 40.3727 2.82824 40.4233 2.8385C40.6498 2.88507 40.9008 2.91033 41.0886 3.02872C41.4604 3.26315 41.8061 3.54257 42.1416 3.82751C42.2481 3.91828 42.2876 4.08877 42.3571 4.22216C42.3208 4.249 42.2844 4.27583 42.2481 4.30346Z" fill="black"/>
<path d="M32.5254 13.2432C31.6011 13.0435 30.7668 12.8635 29.8835 12.6725C30.3137 12.4152 31.8552 12.753 32.5254 13.2432Z" fill="black"/>
<path d="M17.8544 37.1664C17.7881 37.1893 17.7116 37.2461 17.6571 37.2295C17.3611 37.138 17.0691 37.0338 16.781 36.9193C16.7305 36.8996 16.7076 36.8096 16.6721 36.752C16.7242 36.7252 16.7873 36.6652 16.8268 36.6778C17.1804 36.7899 17.5292 36.9154 17.8797 37.0362C17.8718 37.0796 17.8631 37.123 17.8544 37.1664Z" fill="black"/>
<path d="M32.6366 10.5824C32.7432 10.5193 32.8663 10.3883 32.9515 10.4096C33.0889 10.4435 33.2017 10.5785 33.3249 10.6701C33.2302 10.749 33.1362 10.8895 33.0399 10.8911C32.9073 10.8934 32.7724 10.7908 32.6382 10.7332C32.6374 10.6827 32.6366 10.6322 32.6366 10.5824Z" fill="black"/>
<path d="M22.82 28.5369C22.5122 28.4208 22.2604 28.3261 22.0078 28.2314C22.4664 28.0017 22.7758 28.128 22.82 28.5369Z" fill="black"/>
<path d="M26.8478 20.8853C26.7704 20.8017 26.6931 20.718 26.6149 20.6351C26.7152 20.5586 26.8115 20.4315 26.9164 20.4236C26.9954 20.4173 27.1406 20.5554 27.1572 20.6477C27.1777 20.7575 27.0925 20.8869 27.053 21.0085C26.9859 20.9666 26.9164 20.9264 26.8478 20.8853Z" fill="black"/>
<path d="M19.9556 33.058C19.7867 33.1709 19.688 33.2877 19.6028 33.279C19.5089 33.2696 19.4268 33.1441 19.3392 33.0699C19.4197 32.9886 19.4939 32.852 19.5815 32.8426C19.6723 32.8331 19.7765 32.9475 19.9556 33.058Z" fill="black"/>
<path d="M24.1453 24.0962C24.3931 24.1381 24.6402 24.1791 24.9149 24.2257C24.7294 24.513 24.4618 24.4869 24.1255 24.2099C24.1327 24.1712 24.139 24.1333 24.1453 24.0962Z" fill="black"/>
<path d="M30.4905 14.7247C30.6144 14.8676 30.687 14.9521 30.7605 15.0357C30.6665 15.1036 30.5773 15.2157 30.4779 15.2259C30.4053 15.233 30.2513 15.1028 30.2545 15.0412C30.2584 14.9513 30.3745 14.8692 30.4905 14.7247Z" fill="black"/>
<path d="M20.8096 31.5015C20.5886 31.4731 20.3668 31.4447 20.1458 31.4163C20.1497 31.3666 20.1536 31.3168 20.1576 31.2671C20.3873 31.0477 20.602 31.2655 20.8214 31.3389C20.8167 31.3934 20.8135 31.4471 20.8096 31.5015Z" fill="black"/>
</svg>
